<?xml version="1.0" standalone="no"?>
<!DOCTYPE svg PUBLIC "-//W3C//DTD SVG 20010904//EN"
 "http://www.w3.org/TR/2001/REC-SVG-20010904/DTD/svg10.dtd">
<svg version="1.0" xmlns="http://www.w3.org/2000/svg"
 width="400.000000pt" height="400.000000pt" viewBox="0 0 400.000000 400.000000"
 preserveAspectRatio="xMidYMid meet">
<metadata>
Created by potrace 1.14, written by Peter Selinger 2001-2017
</metadata>
<g transform="translate(0.000000,400.000000) scale(0.100000,-0.100000)"
fill="#000000" stroke="none">
<path d="M0 2000 l0 -2000 674 0 674 0 -5 40 c-3 24 -1 46 6 54 10 12 3 16
-43 21 -47 6 -56 11 -56 27 0 14 5 18 18 14 9 -3 53 -10 97 -15 92 -12 209
-27 310 -41 39 -6 104 -14 145 -20 41 -5 109 -14 150 -20 161 -22 174 -23 214
-6 l39 16 -6 68 c-4 37 -7 89 -7 115 0 43 -2 47 -18 38 -10 -5 -41 -13 -69
-17 -45 -6 -52 -4 -62 14 -6 11 -11 41 -11 66 0 68 -19 146 -36 146 -8 0 -14
4 -14 8 0 5 -12 9 -27 9 -49 1 -206 13 -298 23 -49 5 -115 12 -145 15 -88 8
-162 15 -200 20 -19 2 -54 1 -77 -2 -50 -6 -51 -8 -27 -125 17 -83 15 -99 -10
-79 -8 7 -19 10 -25 7 -15 -9 -23 22 -35 139 l-12 110 -14 -45 c-21 -67 -18
-156 7 -212 12 -27 18 -48 12 -48 -5 0 -9 5 -9 10 0 6 -12 10 -26 10 -17 0
-23 -4 -19 -12 4 -7 -7 1 -24 19 -39 42 -55 102 -47 182 7 75 43 145 88 170
l30 16 -6 87 c-4 55 -2 89 5 93 5 4 7 15 4 26 -4 10 -3 39 0 64 6 39 10 44 29
40 11 -3 41 -1 66 4 83 18 107 22 86 13 -18 -8 -18 -9 -2 -15 10 -4 33 -7 53
-7 27 0 34 3 30 15 -4 8 -2 17 3 20 9 6 26 39 101 202 17 38 49 106 71 153 22
47 66 141 98 210 91 199 130 271 141 264 6 -3 19 2 29 11 19 17 19 16 0 -23
-11 -23 -20 -45 -20 -50 0 -5 -13 -36 -30 -70 -16 -34 -30 -64 -30 -66 0 -2
-15 -37 -34 -78 -75 -163 -85 -186 -79 -207 3 -13 1 -21 -6 -21 -7 0 -9 5 -5
12 4 7 3 8 -4 4 -7 -4 -12 -14 -12 -22 0 -8 5 -12 11 -9 11 7 10 6 -24 -62
-11 -23 -12 -33 -4 -37 7 -3 2 -3 -10 0 -18 4 -24 0 -28 -19 -4 -13 -5 -31 -4
-38 1 -8 0 -21 -3 -29 -3 -8 -10 -42 -14 -74 -9 -56 -11 -60 -44 -72 -49 -17
-25 -17 34 1 39 12 46 12 37 1 -10 -11 6 -16 87 -26 54 -7 105 -10 113 -7 8 3
-1 6 -18 6 -18 1 -33 5 -33 10 0 5 11 33 24 62 13 30 56 128 96 219 89 202
102 233 108 244 3 5 -2 6 -12 3 -21 -8 -56 26 -56 55 0 21 34 118 108 311 24
65 52 105 40 59 -4 -12 -2 -25 3 -28 5 -3 9 -11 9 -17 0 -8 -3 -8 -9 1 -5 8
-7 0 -7 -22 1 -20 3 -36 6 -36 5 0 42 93 55 138 8 28 21 28 28 1 3 -11 15 -23
27 -26 15 -4 19 -11 15 -22 -4 -9 -11 -27 -15 -41 -4 -14 -24 -70 -44 -124
-20 -55 -34 -101 -32 -103 4 -5 29 45 100 202 49 109 76 145 110 145 23 0 55
-29 75 -67 6 -12 11 -49 11 -82 0 -51 -9 -81 -60 -201 -48 -113 -58 -145 -49
-157 14 -16 17 -85 6 -124 -5 -19 -1 -33 14 -50 54 -62 114 -143 111 -152 -2
-6 11 -7 30 -4 l33 6 -29 -13 c-26 -12 -27 -14 -11 -23 17 -10 17 -11 -4 -18
-14 -4 -20 -12 -17 -21 3 -8 -1 -14 -9 -14 -8 0 -15 -5 -15 -11 0 -5 -4 -7
-10 -4 -5 3 -10 -1 -10 -9 0 -14 8 -13 58 5 31 11 65 24 74 30 10 5 24 9 32 9
7 0 67 18 133 39 194 64 254 79 335 86 66 6 76 9 70 23 -5 16 -5 16 11 0 20
-19 22 -54 5 -62 -7 -3 -1 -4 14 -1 26 5 26 4 30 -60 4 -75 3 -75 -82 -75 -40
0 -64 -5 -75 -16 -9 -9 -25 -14 -35 -11 -11 3 -23 1 -26 -4 -3 -5 -9 -7 -14
-4 -27 16 -28 -132 -2 -180 25 -45 41 -58 62 -52 11 3 18 1 14 -4 -3 -5 -30
-9 -60 -9 -43 0 -56 -4 -66 -20 -9 -14 -24 -20 -50 -20 -57 0 -62 -17 -66
-225 -5 -244 -3 -319 8 -323 6 -2 10 -17 10 -33 0 -16 5 -29 11 -29 5 0 15
-13 20 -30 6 -16 17 -30 25 -30 8 0 14 -4 14 -10 0 -5 8 -10 17 -10 13 0 10 7
-13 33 -17 17 -36 45 -43 62 -22 50 -25 154 -7 222 19 76 62 149 79 135 7 -5
30 -10 51 -10 47 -2 50 -5 37 -29 -26 -48 -28 -61 -33 -193 -3 -109 13 -153
70 -181 17 -9 29 -19 25 -23 -3 -3 1 -6 10 -6 12 0 17 -8 17 -26 0 -14 4 -22
10 -19 6 4 7 -1 3 -11 -4 -12 -3 -15 5 -10 7 4 12 1 12 -8 0 -14 17 -16 108
-16 l107 0 -47 41 c-49 41 -69 74 -87 144 -30 113 13 287 86 345 28 22 28 22
3 15 -36 -10 -76 -51 -100 -101 -29 -63 -29 -236 0 -296 11 -23 20 -43 20 -43
0 -5 -67 2 -82 9 -19 9 -58 86 -58 117 0 14 -5 19 -14 16 -28 -11 -53 52 -34
87 16 31 17 31 31 13 10 -14 11 4 9 97 -3 109 -4 114 -26 120 -19 5 -21 11
-18 41 3 21 10 35 18 35 10 0 14 15 14 59 l0 58 113 45 c93 38 120 45 160 41
l47 -5 0 -46 c0 -40 -2 -44 -13 -28 -33 45 -88 -7 -73 -68 8 -31 39 -35 68 -9
17 15 18 13 18 -65 l0 -82 64 0 c54 0 67 -4 88 -25 18 -17 24 -32 21 -49 l-5
-25 -25 30 c-14 16 -33 29 -44 29 -34 0 -75 -52 -98 -123 -56 -178 12 -348
113 -282 l23 15 -5 -55 c-4 -48 -2 -55 13 -55 10 0 27 8 37 17 18 16 18 16 12
0 -6 -16 14 -17 255 -17 l261 0 0 2000 0 2000 -2000 0 -2000 0 0 -2000z m2460
1312 c0 -4 -8 -12 -19 -19 -23 -14 -34 -63 -15 -63 7 0 34 7 60 16 25 8 48 14
50 12 5 -6 13 -70 20 -175 l7 -93 31 3 c25 2 32 -2 34 -20 3 -20 -1 -23 -27
-23 -17 0 -31 -4 -31 -9 0 -6 16 -7 35 -4 19 3 35 3 35 -1 0 -7 9 -53 50 -263
15 -74 21 -135 18 -180 -7 -130 -86 -246 -206 -305 -60 -30 -75 -33 -157 -33
-92 0 -134 11 -189 49 -28 19 -29 19 -22 1 7 -18 -7 -35 -30 -35 -14 0 -24 59
-12 67 6 3 -2 17 -15 32 -49 51 -71 106 -103 251 -42 192 -50 237 -46 248 2 7
15 12 29 12 21 0 24 4 20 23 -3 12 -3 37 1 56 7 30 12 35 55 46 26 7 56 20 66
29 26 24 123 49 132 34 5 -8 20 -8 56 2 59 16 63 19 52 48 -9 24 -54 31 -87
13 -16 -8 -17 -3 -14 60 5 74 -2 83 -43 56 -37 -23 -57 -15 -70 30 l-13 42 32
10 c17 5 78 23 136 40 58 17 116 35 130 40 33 12 50 13 50 3z m-683 -88 c-3
-3 -12 -4 -19 -1 -8 3 -5 6 6 6 11 1 17 -2 13 -5z m-120 -50 c-3 -3 -12 -4
-19 -1 -8 3 -5 6 6 6 11 1 17 -2 13 -5z m961 -28 c-1 -6 1 -21 6 -33 4 -13 2
-30 -4 -40 -11 -17 -11 -17 -5 1 3 11 2 22 -3 25 -5 3 -12 18 -15 32 -5 19 -3
26 8 26 8 0 14 -5 13 -11z m-728 -36 c0 -5 -7 -7 -15 -4 -8 4 -15 8 -15 10 0
2 7 4 15 4 8 0 15 -4 15 -10z m-80 -20 c0 -5 -7 -10 -15 -10 -8 0 -15 5 -15
10 0 6 7 10 15 10 8 0 15 -4 15 -10z m277 -90 c-3 -11 -6 -10 -11 5 -22 58
-25 61 -25 30 -1 -23 -4 -27 -11 -15 -12 19 -13 63 -1 56 5 -3 12 2 16 12 6
13 11 7 22 -28 7 -25 12 -52 10 -60z m-573 58 c-3 -13 -11 -29 -17 -36 -9 -11
-13 -11 -23 3 -10 13 -21 16 -47 11 -19 -4 -40 -12 -45 -19 -12 -14 -9 -53 4
-51 101 17 96 17 85 -3 -23 -43 -72 -175 -66 -181 3 -3 25 -1 48 5 23 6 55 9
70 6 15 -3 60 2 99 12 59 14 72 15 79 3 15 -24 10 -38 -18 -43 -139 -30 -173
-41 -173 -60 0 -8 4 -15 10 -17 5 -1 34 -102 65 -223 51 -204 73 -283 59 -210
l-6 30 31 -30 c17 -17 31 -37 31 -46 0 -9 -16 -66 -36 -128 l-36 -111 -113 0
c-62 0 -122 -3 -132 -7 -10 -3 -15 -3 -12 1 4 4 47 16 95 26 82 17 90 17 101
3 7 -9 16 -13 20 -9 4 4 1 11 -7 17 -12 7 -11 10 6 15 19 5 20 10 14 39 -7 30
-5 33 20 38 26 6 26 7 16 51 -6 25 -14 46 -19 46 -4 0 -6 -4 -3 -9 4 -5 -2 -7
-13 -4 -12 3 -20 -2 -23 -15 -4 -15 -1 -18 12 -15 9 3 20 -2 23 -10 4 -10 -19
-19 -96 -37 -315 -71 -287 -66 -287 -45 0 8 5 15 10 15 6 0 10 7 10 15 0 16
-17 19 -43 9 -14 -5 -14 -10 -2 -45 14 -37 11 -69 -4 -69 -8 0 -18 29 -45 130
-8 30 -24 89 -36 130 -89 318 -97 359 -80 401 10 23 20 29 56 35 25 3 50 14
57 23 15 20 108 46 116 32 8 -12 90 6 110 24 11 11 10 16 -7 33 -13 13 -28 19
-41 15 -26 -7 -27 6 -2 57 l19 39 -36 -2 c-28 -2 -37 2 -40 17 -6 28 49 126
70 126 18 0 94 17 138 31 39 12 42 11 34 -13z m463 -50 c11 -63 -3 -80 -30
-38 -20 32 -42 31 -53 -3 -7 -21 -8 -21 -17 6 -7 22 -14 28 -31 24 -15 -3
-152 -38 -162 -42 -1 0 -5 -10 -8 -22 -5 -14 -1 -28 11 -40 10 -10 16 -17 14
-16 -2 2 -9 -4 -15 -12 -6 -8 -26 -18 -43 -21 -29 -6 -33 -4 -33 15 0 11 -4
21 -8 21 -4 0 -13 18 -19 40 -12 45 -6 54 42 63 26 4 128 29 270 64 72 18 73
18 82 -39z m668 7 c3 -23 1 -35 -4 -29 -13 12 -18 85 -6 73 2 -3 7 -23 10 -44z
m24 -68 c0 -9 -2 -8 -6 1 -2 6 -10 9 -15 6 -7 -4 -8 -2 -4 5 9 13 26 5 25 -12z
m-1170 -34 c6 -21 10 -49 10 -63 -1 -19 -4 -14 -15 19 -7 24 -16 52 -19 62 -4
11 -2 19 4 19 5 0 15 -17 20 -37z m18 15 c-3 -8 -6 -5 -6 6 -1 11 2 17 5 13 3
-3 4 -12 1 -19z m258 2 c3 -5 1 -10 -4 -10 -6 0 -11 5 -11 10 0 6 2 10 4 10 3
0 8 -4 11 -10z m-35 -14 c0 -2 -7 -7 -16 -10 -8 -3 -12 -2 -9 4 6 10 25 14 25
6z m1087 -68 c-3 -8 -6 -5 -6 6 -1 11 2 17 5 13 3 -3 4 -12 1 -19z m-889 -227
l10 -29 -71 -16 c-116 -26 -122 -25 -123 6 -1 25 4 29 50 42 47 13 82 21 113
25 6 0 16 -12 21 -28z m-67 -148 c12 -32 35 -77 51 -100 15 -23 28 -53 28 -66
0 -22 -6 -27 -50 -36 -69 -15 -80 -14 -87 7 -4 9 -11 20 -17 25 -7 5 -6 10 4
17 12 8 11 10 -7 10 -13 0 -23 2 -23 4 0 2 -3 11 -6 20 -4 11 0 16 12 16 11 0
15 4 9 8 -5 4 -11 16 -13 26 -2 10 -10 25 -18 33 -8 8 -17 25 -20 39 -4 15
-16 27 -33 32 -19 5 -5 9 54 13 44 3 83 6 86 7 4 1 17 -24 30 -55z m180 -436
c-10 -9 -11 -8 -5 6 3 10 9 15 12 12 3 -3 0 -11 -7 -18z m-1 -21 c0 -3 -4 -8
-10 -11 -5 -3 -10 -1 -10 4 0 6 5 11 10 11 6 0 10 -2 10 -4z m507 -722 c-3 -3
-12 -4 -19 -1 -8 3 -5 6 6 6 11 1 17 -2 13 -5z m223 -4 c3 -1 -6 -5 -20 -9
-14 -4 -31 -4 -37 2 -7 5 -26 7 -43 5 -16 -3 -30 0 -30 5 0 7 107 4 130 -3z
m167 -6 c-10 -10 -157 -9 -157 1 0 6 31 9 81 7 44 -2 79 -6 76 -8z m-547 2 c0
-2 -7 -7 -16 -10 -8 -3 -12 -2 -9 4 6 10 25 14 25 6z m385 -26 c3 -5 1 -10 -4
-10 -6 0 -11 5 -11 10 0 6 2 10 4 10 3 0 8 -4 11 -10z m65 -4 c0 -2 -11 -6
-25 -8 -13 -3 -22 -1 -19 3 5 9 44 13 44 5z m-223 -12 c-3 -3 -12 -4 -19 -1
-8 3 -5 6 6 6 11 1 17 -2 13 -5z m-31 -36 c5 -7 2 -9 -8 -5 -9 3 -19 2 -24 -3
-5 -5 -27 -10 -48 -12 -28 -2 -40 1 -43 12 -4 12 -3 13 5 1 8 -11 16 -11 53 1
57 20 57 20 65 6z m-166 -78 c0 -5 -2 -10 -4 -10 -3 0 -8 5 -11 10 -3 6 -1 10
4 10 6 0 11 -4 11 -10z m-1105 -60 c-11 -5 -27 -9 -35 -9 -9 0 -8 4 5 9 11 5
27 9 35 9 9 0 8 -4 -5 -9z m1645 -194 c0 -3 -4 -8 -10 -11 -5 -3 -10 -1 -10 4
0 6 5 11 10 11 6 0 10 -2 10 -4z m25 -36 c10 -11 14 -20 9 -20 -5 0 -15 9 -22
20 -7 11 -11 20 -9 20 2 0 12 -9 22 -20z m564 -450 c39 -45 71 -86 71 -92 0
-6 -11 -8 -29 -5 -26 5 -31 2 -40 -21 -9 -26 -9 -26 -10 -4 -1 15 -8 26 -20
29 -12 3 -21 17 -25 36 -13 75 -22 137 -21 137 1 0 34 -36 74 -80z m-109 26
c0 -2 -7 -6 -15 -10 -8 -3 -15 -1 -15 4 0 6 7 10 15 10 8 0 15 -2 15 -4z m-20
-44 c-14 -19 -23 -50 -27 -99 -4 -54 -9 -70 -19 -66 -8 3 -12 9 -9 13 3 4 -1
8 -8 7 -40 -1 -47 3 -38 26 5 12 12 46 16 75 6 48 9 52 33 52 15 0 34 5 42 10
27 18 31 10 10 -18z m17 -104 c-2 -13 -4 -5 -4 17 -1 22 1 32 4 23 2 -10 2
-28 0 -40z m52 13 c0 -12 -2 -12 -10 4 -7 15 -8 11 -6 -20 2 -31 -2 -40 -16
-43 -16 -3 -17 -1 -8 16 6 12 11 35 11 53 0 27 2 30 15 19 8 -7 15 -20 14 -29z
m18 -33 c-3 -7 -5 -2 -5 12 0 14 2 19 5 13 2 -7 2 -19 0 -25z m-122 -79 c16
-30 13 -52 -4 -33 -10 11 -24 64 -16 64 2 0 12 -14 20 -31z"/>
<path d="M2268 3244 c-19 -10 -28 -23 -28 -40 0 -24 2 -25 33 -19 61 14 77 24
77 48 0 18 -6 23 -27 24 -16 1 -40 -5 -55 -13z"/>
<path d="M2501 3164 c0 -11 3 -14 6 -6 3 7 2 16 -1 19 -3 4 -6 -2 -5 -13z"/>
<path d="M2463 3089 c-35 -10 -35 -10 -38 -52 -2 -26 -1 -27 34 -21 59 11 81
22 81 42 0 20 -19 42 -34 41 -6 0 -26 -5 -43 -10z"/>
<path d="M2370 2964 c-69 -19 -165 -44 -215 -56 -49 -12 -84 -23 -77 -26 7 -2
50 5 95 17 45 11 142 34 214 52 73 17 130 35 127 40 -6 11 5 13 -144 -27z"/>
<path d="M2020 2871 c0 -5 9 -7 20 -4 11 3 20 7 20 9 0 2 -9 4 -20 4 -11 0
-20 -4 -20 -9z"/>
<path d="M2273 2786 c-87 -28 -152 -88 -189 -176 -25 -58 -20 -169 10 -228 79
-156 280 -204 418 -99 72 55 140 177 109 197 -8 4 -10 13 -7 19 4 6 3 11 -2
11 -5 0 -8 16 -8 35 1 44 13 46 19 3 3 -30 4 -30 5 7 1 23 -5 50 -14 63 -8 12
-12 22 -8 22 10 0 -45 72 -75 97 -37 32 -124 63 -174 62 -23 0 -61 -6 -84 -13z
m173 -51 l43 -26 -30 -49 -31 -50 -43 31 -44 32 16 31 c18 35 33 56 41 56 3 0
25 -11 48 -25z m-176 -5 c0 -5 -5 -10 -11 -10 -5 0 -7 5 -4 10 3 6 8 10 11 10
2 0 4 -4 4 -10z m2 -36 c21 -15 38 -28 38 -31 0 -10 -54 -83 -62 -83 -4 0 -26
12 -48 26 -37 25 -39 29 -27 48 8 12 20 31 28 44 18 28 25 28 71 -4z m312 -86
c3 -13 6 -37 6 -53 0 -28 -4 -31 -47 -42 -27 -6 -49 -9 -51 -8 -2 2 -5 14 -7
27 -2 12 -6 37 -10 55 -8 35 -16 31 86 41 10 1 19 -8 23 -20z m-179 -43 c1
-11 5 -34 9 -51 7 -30 5 -32 -38 -44 -58 -16 -67 -12 -81 37 -15 51 -10 60 40
72 54 12 68 10 70 -14z m-178 -55 c2 -19 8 -37 14 -40 13 -8 -16 -40 -35 -40
-8 0 -27 -3 -43 -6 -28 -6 -30 -4 -41 47 -7 28 -11 54 -9 56 6 5 90 21 102 19
5 -2 11 -18 12 -36z m318 -50 c-6 -9 -9 -9 -16 1 -10 17 0 34 13 21 6 -6 7
-16 3 -22z m-30 -24 c17 -12 32 -22 33 -23 2 -1 -10 -22 -27 -47 l-32 -46 -39
26 c-22 15 -40 31 -40 36 0 19 53 87 64 81 6 -4 25 -16 41 -27z m55 14 c0 -5
-5 -10 -11 -10 -5 0 -7 5 -4 10 3 6 8 10 11 10 2 0 4 -4 4 -10z m-260 -40 c13
-11 26 -20 29 -20 3 0 12 -4 20 -9 12 -8 10 -17 -14 -53 -16 -24 -30 -44 -31
-46 -4 -6 -84 50 -84 58 0 13 43 90 50 90 4 0 17 -9 30 -20z m-80 -12 c0 -12
-3 -18 -7 -14 -11 10 -12 36 -2 36 5 0 9 -10 9 -22z m-68 -3 c0 -5 -5 -11 -11
-13 -6 -2 -11 4 -11 13 0 9 5 15 11 13 6 -2 11 -8 11 -13z m235 -32 c-3 -10
-5 -4 -5 12 0 17 2 24 5 18 2 -7 2 -21 0 -30z"/>
<path d="M1296 2485 c-22 -9 -47 -21 -55 -29 -9 -7 -24 -16 -33 -19 -14 -5
-18 -18 -18 -51 0 -40 -3 -45 -30 -55 -23 -8 -30 -16 -30 -36 0 -40 18 -67 40
-60 13 4 23 -2 35 -23 21 -35 71 -70 113 -78 52 -10 97 4 145 46 25 22 50 40
56 40 6 0 8 7 5 15 -4 8 -3 31 0 50 6 28 11 35 31 35 32 0 36 9 23 59 -11 41
-12 43 -43 38 -34 -6 -57 11 -70 52 -5 16 -15 21 -39 21 -19 0 -46 2 -62 5
-16 2 -47 -2 -68 -10z"/>
<path d="M1652 2200 c0 -8 4 -26 8 -40 6 -20 8 -21 8 -5 0 11 -3 29 -8 40 -5
12 -8 14 -8 5z"/>
<path d="M2255 1940 c-20 -40 -19 -83 4 -111 l19 -24 36 19 c58 31 62 96 7
129 -40 23 -48 22 -66 -13z"/>
<path d="M2074 1673 c-34 -35 -3 -111 40 -99 12 3 24 6 27 6 16 0 28 51 18 74
-14 29 -64 40 -85 19z"/>
<path d="M1982 1668 c-15 -15 -16 -74 -2 -83 7 -4 9 2 5 18 -9 35 10 65 42 70
28 4 28 4 -2 6 -17 0 -36 -4 -43 -11z"/>
<path d="M1994 1563 c3 -6 0 -14 -6 -16 -8 -3 -6 -6 5 -6 12 -1 17 -10 18 -33
2 -49 0 -54 -41 -150 l-37 -87 49 -56 c28 -30 54 -55 58 -55 4 0 15 18 24 40
38 96 70 160 80 160 5 0 0 9 -12 20 -12 11 -45 55 -73 98 -46 69 -84 118 -65
85z"/>
<path d="M2220 1500 c-10 -6 -11 -10 -2 -10 6 0 12 -9 12 -20 0 -11 -6 -20
-12 -20 -7 0 -5 -5 6 -11 30 -18 48 21 24 54 -9 12 -17 14 -28 7z"/>
<path d="M2962 1173 l1 -48 4 42 c4 41 5 42 46 46 l42 4 -47 1 -48 2 2 -47z"/>
<path d="M2918 1203 c7 -3 16 -2 19 1 4 3 -2 6 -13 5 -11 0 -14 -3 -6 -6z"/>
<path d="M2345 1190 c-13 -6 -15 -9 -5 -9 8 0 22 4 30 9 18 12 2 12 -25 0z"/>
<path d="M2825 1182 c-27 -8 -45 -17 -40 -19 6 -2 35 5 65 16 65 23 47 26 -25
3z"/>
<path d="M1971 1174 c0 -11 3 -14 6 -6 3 7 2 16 -1 19 -3 4 -6 -2 -5 -13z"/>
<path d="M2607 1113 c-76 -25 -136 -48 -133 -50 5 -5 296 87 296 93 0 9 -31 1
-163 -43z"/>
<path d="M2420 1050 c-13 -9 -13 -10 0 -10 8 0 22 5 30 10 13 9 13 10 0 10 -8
0 -22 -5 -30 -10z"/>
<path d="M2017 1043 c-4 -3 -7 -15 -7 -25 0 -10 -6 -18 -12 -19 -7 0 -4 -4 8
-9 17 -7 111 3 120 13 2 2 -3 13 -12 25 -11 16 -25 22 -53 22 -21 0 -41 -3
-44 -7z"/>
<path d="M2360 1030 c-13 -9 -13 -10 0 -10 8 0 22 5 30 10 13 9 13 10 0 10 -8
0 -22 -5 -30 -10z"/>
<path d="M2282 1003 c-24 -8 -41 -17 -39 -19 4 -5 97 26 97 32 0 6 -11 4 -58
-13z"/>
<path d="M1161 974 c11 -3 18 -22 23 -57 3 -29 9 -70 13 -91 6 -39 6 -39 -22
-32 -25 6 -27 5 -21 -16 3 -13 9 -53 12 -90 8 -76 2 -73 129 -82 44 -4 131
-11 193 -16 61 -6 163 -14 225 -20 61 -5 172 -15 245 -21 103 -9 142 -9 176 1
l45 12 -6 92 c-3 50 -6 92 -7 93 -1 1 -24 -3 -51 -8 -28 -5 -62 -7 -76 -4 -25
6 -27 10 -34 83 -3 42 -8 84 -11 92 -3 12 8 15 54 15 32 1 72 8 92 18 19 9 24
13 10 9 -37 -11 -274 -8 -555 6 -400 20 -451 22 -434 16z m467 -224 c1 -27 -3
-52 -7 -55 -15 -8 -34 24 -26 42 5 10 7 24 6 32 -4 20 8 43 18 37 5 -3 9 -28
9 -56z m203 50 c20 -11 27 -60 9 -60 -5 0 -10 9 -10 20 0 13 -7 20 -20 20 -17
0 -20 -7 -20 -40 0 -22 2 -40 4 -40 2 0 11 -3 20 -6 12 -4 16 0 16 15 0 12 5
21 10 21 15 0 12 -46 -4 -59 -9 -8 -21 -8 -40 -1 -24 9 -26 14 -26 69 0 68 16
84 61 61z m-91 -49 c0 -28 5 -53 11 -57 7 -4 8 -9 0 -17 -20 -20 -40 12 -39
61 0 51 4 62 19 62 5 0 9 -22 9 -49z"/>
<path d="M2190 970 c-8 -5 -10 -10 -5 -10 6 0 17 5 25 10 8 5 11 10 5 10 -5 0
-17 -5 -25 -10z"/>
<path d="M2660 850 c-8 -5 -10 -10 -5 -10 6 0 17 5 25 10 8 5 11 10 5 10 -5 0
-17 -5 -25 -10z"/>
<path d="M2572 823 c-24 -8 -41 -17 -39 -19 4 -5 97 26 97 32 0 6 -11 4 -58
-13z"/>
<path d="M2480 786 c-8 -10 -10 -36 -5 -83 3 -37 5 -85 5 -105 0 -20 4 -103
10 -185 7 -81 12 -161 13 -178 0 -16 4 -32 8 -35 4 -3 9 -14 11 -24 2 -16 -25
-31 -175 -95 -161 -69 -174 -76 -140 -79 44 -4 88 8 170 45 32 15 69 29 82 31
13 2 37 10 54 18 16 9 26 11 23 6 -3 -6 0 -12 7 -15 10 -4 11 14 5 82 -4 47
-12 142 -17 211 -24 289 -31 366 -36 387 -3 12 1 24 8 26 7 4 8 6 1 6 -6 1
-17 -5 -24 -13z"/>
<path d="M3110 714 c-20 -51 -8 -84 29 -84 35 0 51 17 51 55 0 37 -16 55 -47
55 -16 0 -27 -8 -33 -26z"/>
<path d="M2063 493 c9 -2 25 -2 35 0 9 3 1 5 -18 5 -19 0 -27 -2 -17 -5z"/>
<path d="M1362 88 c-15 -15 -15 -43 -2 -69 8 -14 21 -19 57 -19 l46 0 -7 32
c-11 58 -62 88 -94 56z"/>
<path d="M1455 63 c8 -16 16 -36 19 -45 5 -17 29 -18 323 -17 175 0 314 2 308
4 -5 3 -82 13 -170 25 -88 11 -193 25 -232 30 -166 23 -219 29 -240 30 -21 0
-21 -2 -8 -27z"/>
<path d="M3273 60 c-1 -11 3 -23 9 -26 7 -4 6 -9 -3 -15 -21 -13 -4 -21 36
-17 l36 3 -38 37 c-33 33 -39 35 -40 18z"/>
<path d="M2806 63 c-4 -4 -24 -6 -45 -4 -27 2 -40 -2 -44 -13 -4 -9 -1 -16 6
-16 7 -1 1 -7 -13 -15 -23 -13 -15 -14 88 -15 61 0 112 4 112 8 0 27 -86 72
-104 55z"/>
<path d="M2592 20 c0 -14 2 -19 5 -12 2 6 2 18 0 25 -3 6 -5 1 -5 -13z"/>
<path d="M2950 14 c0 -9 11 -14 31 -14 35 0 31 15 -6 22 -17 4 -25 1 -25 -8z"/>
</g>
</svg>
