<svg xmlns="http://www.w3.org/2000/svg" xmlns:xlink="http://www.w3.org/1999/xlink" width="500" zoomAndPan="magnify" viewBox="0 0 375 374.999991" height="500" preserveAspectRatio="xMidYMid meet" version="1.0"><defs><g/></defs><rect x="-37.5" width="450" fill="#ffffff" y="-37.499999" height="449.999989" fill-opacity="1"/><rect x="-37.5" width="450" fill="#ffffff" y="-37.499999" height="449.999989" fill-opacity="1"/><g fill="#000000" fill-opacity="1"><g transform="translate(23.866909, 185.179589)"><g><path d="M 36.59375 0 L 36.546875 -21.34375 L 26.078125 -3.765625 L 22.359375 -3.765625 L 11.9375 -20.890625 L 11.9375 0 L 4.21875 0 L 4.21875 -35.578125 L 11.03125 -35.578125 L 24.34375 -13.46875 L 37.453125 -35.578125 L 44.21875 -35.578125 L 44.328125 0 Z M 36.59375 0 "/></g></g></g><g fill="#000000" fill-opacity="1"><g transform="translate(68.540638, 185.179589)"><g><path d="M 14.6875 -27.75 C 18.925781 -27.75 22.179688 -26.738281 24.453125 -24.71875 C 26.722656 -22.707031 27.859375 -19.671875 27.859375 -15.609375 L 27.859375 0 L 20.4375 0 L 20.4375 -3.40625 C 18.945312 -0.863281 16.164062 0.40625 12.09375 0.40625 C 10 0.40625 8.179688 0.0507812 6.640625 -0.65625 C 5.097656 -1.375 3.914062 -2.359375 3.09375 -3.609375 C 2.28125 -4.859375 1.875 -6.28125 1.875 -7.875 C 1.875 -10.414062 2.832031 -12.414062 4.75 -13.875 C 6.664062 -15.332031 9.625 -16.0625 13.625 -16.0625 L 19.921875 -16.0625 C 19.921875 -17.789062 19.394531 -19.117188 18.34375 -20.046875 C 17.289062 -20.984375 15.71875 -21.453125 13.625 -21.453125 C 12.164062 -21.453125 10.734375 -21.222656 9.328125 -20.765625 C 7.921875 -20.304688 6.726562 -19.6875 5.75 -18.90625 L 2.890625 -24.453125 C 4.390625 -25.503906 6.179688 -26.316406 8.265625 -26.890625 C 10.347656 -27.460938 12.488281 -27.75 14.6875 -27.75 Z M 14.078125 -4.9375 C 15.429688 -4.9375 16.632812 -5.25 17.6875 -5.875 C 18.738281 -6.5 19.484375 -7.421875 19.921875 -8.640625 L 19.921875 -11.4375 L 14.484375 -11.4375 C 11.234375 -11.4375 9.609375 -10.367188 9.609375 -8.234375 C 9.609375 -7.210938 10.003906 -6.40625 10.796875 -5.8125 C 11.597656 -5.226562 12.691406 -4.9375 14.078125 -4.9375 Z M 14.078125 -4.9375 "/></g></g></g><g fill="#000000" fill-opacity="1"><g transform="translate(96.035756, 185.179589)"><g><path d="M 15.40625 -10.71875 L 11.59375 -6.96875 L 11.59375 0 L 3.65625 0 L 3.65625 -37.71875 L 11.59375 -37.71875 L 11.59375 -16.359375 L 23.171875 -27.34375 L 32.625 -27.34375 L 21.25 -15.75 L 33.640625 0 L 24.046875 0 Z M 15.40625 -10.71875 "/></g></g></g><g fill="#000000" fill-opacity="1"><g transform="translate(125.716321, 185.179589)"><g><path d="M 30.453125 -13.578125 C 30.453125 -13.472656 30.398438 -12.757812 30.296875 -11.4375 L 9.609375 -11.4375 C 9.984375 -9.738281 10.863281 -8.398438 12.25 -7.421875 C 13.632812 -6.441406 15.363281 -5.953125 17.4375 -5.953125 C 18.851562 -5.953125 20.113281 -6.160156 21.21875 -6.578125 C 22.320312 -7.003906 23.347656 -7.675781 24.296875 -8.59375 L 28.515625 -4.015625 C 25.941406 -1.066406 22.179688 0.40625 17.234375 0.40625 C 14.148438 0.40625 11.421875 -0.191406 9.046875 -1.390625 C 6.671875 -2.597656 4.835938 -4.269531 3.546875 -6.40625 C 2.265625 -8.539062 1.625 -10.960938 1.625 -13.671875 C 1.625 -16.347656 2.257812 -18.757812 3.53125 -20.90625 C 4.800781 -23.0625 6.546875 -24.738281 8.765625 -25.9375 C 10.984375 -27.144531 13.46875 -27.75 16.21875 -27.75 C 18.894531 -27.75 21.316406 -27.171875 23.484375 -26.015625 C 25.648438 -24.867188 27.351562 -23.21875 28.59375 -21.0625 C 29.832031 -18.914062 30.453125 -16.421875 30.453125 -13.578125 Z M 16.265625 -21.75 C 14.472656 -21.75 12.960938 -21.238281 11.734375 -20.21875 C 10.515625 -19.207031 9.769531 -17.820312 9.5 -16.0625 L 22.96875 -16.0625 C 22.695312 -17.789062 21.953125 -19.171875 20.734375 -20.203125 C 19.515625 -21.234375 18.023438 -21.75 16.265625 -21.75 Z M 16.265625 -21.75 "/></g></g></g><g fill="#000000" fill-opacity="1"><g transform="translate(153.922972, 185.179589)"><g><path d="M 11.234375 -23.734375 C 12.179688 -25.054688 13.457031 -26.054688 15.0625 -26.734375 C 16.675781 -27.410156 18.535156 -27.75 20.640625 -27.75 L 20.640625 -20.4375 C 19.753906 -20.5 19.160156 -20.53125 18.859375 -20.53125 C 16.585938 -20.53125 14.804688 -19.894531 13.515625 -18.625 C 12.234375 -17.351562 11.59375 -15.445312 11.59375 -12.90625 L 11.59375 0 L 3.65625 0 L 3.65625 -27.34375 L 11.234375 -27.34375 Z M 11.234375 -23.734375 "/></g></g></g><g fill="#000000" fill-opacity="1"><g transform="translate(171.968462, 185.179589)"><g><path d="M 9.5625 -32.328125 L 9.5625 -18.34375 L 27.953125 -18.34375 L 27.953125 -15.09375 L 9.5625 -15.09375 L 9.5625 0 L 5.796875 0 L 5.796875 -35.578125 L 30.1875 -35.578125 L 30.1875 -32.328125 Z M 9.5625 -32.328125 "/></g></g></g><g fill="#000000" fill-opacity="1"><g transform="translate(200.276763, 185.179589)"><g><path d="M 15.953125 0.25 C 13.378906 0.25 11.054688 -0.332031 8.984375 -1.5 C 6.921875 -2.664062 5.296875 -4.28125 4.109375 -6.34375 C 2.929688 -8.414062 2.34375 -10.757812 2.34375 -13.375 C 2.34375 -15.976562 2.929688 -18.3125 4.109375 -20.375 C 5.296875 -22.445312 6.921875 -24.054688 8.984375 -25.203125 C 11.054688 -26.359375 13.378906 -26.9375 15.953125 -26.9375 C 18.535156 -26.9375 20.859375 -26.359375 22.921875 -25.203125 C 24.992188 -24.054688 26.613281 -22.445312 27.78125 -20.375 C 28.945312 -18.3125 29.53125 -15.976562 29.53125 -13.375 C 29.53125 -10.757812 28.945312 -8.414062 27.78125 -6.34375 C 26.613281 -4.28125 24.992188 -2.664062 22.921875 -1.5 C 20.859375 -0.332031 18.535156 0.25 15.953125 0.25 Z M 15.953125 -2.953125 C 17.859375 -2.953125 19.5625 -3.382812 21.0625 -4.25 C 22.570312 -5.113281 23.75 -6.335938 24.59375 -7.921875 C 25.445312 -9.515625 25.875 -11.332031 25.875 -13.375 C 25.875 -15.40625 25.445312 -17.21875 24.59375 -18.8125 C 23.75 -20.40625 22.570312 -21.628906 21.0625 -22.484375 C 19.5625 -23.347656 17.859375 -23.78125 15.953125 -23.78125 C 14.054688 -23.78125 12.351562 -23.347656 10.84375 -22.484375 C 9.34375 -21.628906 8.160156 -20.40625 7.296875 -18.8125 C 6.429688 -17.21875 6 -15.40625 6 -13.375 C 6 -11.332031 6.429688 -9.515625 7.296875 -7.921875 C 8.160156 -6.335938 9.34375 -5.113281 10.84375 -4.25 C 12.351562 -3.382812 14.054688 -2.953125 15.953125 -2.953125 Z M 15.953125 -2.953125 "/></g></g></g><g fill="#000000" fill-opacity="1"><g transform="translate(228.280125, 185.179589)"><g><path d="M 8.484375 -21.5 C 9.335938 -23.289062 10.601562 -24.644531 12.28125 -25.5625 C 13.957031 -26.476562 16.03125 -26.9375 18.5 -26.9375 L 18.5 -23.4375 L 17.640625 -23.484375 C 14.828125 -23.484375 12.625 -22.617188 11.03125 -20.890625 C 9.4375 -19.160156 8.640625 -16.738281 8.640625 -13.625 L 8.640625 0 L 5.03125 0 L 5.03125 -26.734375 L 8.484375 -26.734375 Z M 8.484375 -21.5 "/></g></g></g><g fill="#000000" fill-opacity="1"><g transform="translate(244.797204, 185.179589)"><g><path d="M 29.78125 -26.734375 L 29.78125 -3.25 C 29.78125 1.289062 28.671875 4.648438 26.453125 6.828125 C 24.234375 9.015625 20.890625 10.109375 16.421875 10.109375 C 13.941406 10.109375 11.59375 9.742188 9.375 9.015625 C 7.15625 8.285156 5.351562 7.28125 3.96875 6 L 5.796875 3.25 C 7.078125 4.40625 8.640625 5.300781 10.484375 5.9375 C 12.335938 6.582031 14.28125 6.90625 16.3125 6.90625 C 19.707031 6.90625 22.195312 6.117188 23.78125 4.546875 C 25.375 2.972656 26.171875 0.523438 26.171875 -2.796875 L 26.171875 -6.203125 C 25.054688 -4.503906 23.59375 -3.210938 21.78125 -2.328125 C 19.96875 -1.453125 17.957031 -1.015625 15.75 -1.015625 C 13.25 -1.015625 10.972656 -1.566406 8.921875 -2.671875 C 6.867188 -3.773438 5.257812 -5.316406 4.09375 -7.296875 C 2.925781 -9.273438 2.34375 -11.519531 2.34375 -14.03125 C 2.34375 -16.539062 2.925781 -18.773438 4.09375 -20.734375 C 5.257812 -22.703125 6.859375 -24.226562 8.890625 -25.3125 C 10.921875 -26.394531 13.207031 -26.9375 15.75 -26.9375 C 18.019531 -26.9375 20.070312 -26.476562 21.90625 -25.5625 C 23.738281 -24.644531 25.210938 -23.328125 26.328125 -21.609375 L 26.328125 -26.734375 Z M 16.109375 -4.21875 C 18.046875 -4.21875 19.789062 -4.628906 21.34375 -5.453125 C 22.90625 -6.285156 24.117188 -7.445312 24.984375 -8.9375 C 25.847656 -10.4375 26.28125 -12.132812 26.28125 -14.03125 C 26.28125 -15.925781 25.847656 -17.609375 24.984375 -19.078125 C 24.117188 -20.554688 22.914062 -21.707031 21.375 -22.53125 C 19.832031 -23.363281 18.078125 -23.78125 16.109375 -23.78125 C 14.179688 -23.78125 12.445312 -23.375 10.90625 -22.5625 C 9.363281 -21.75 8.160156 -20.597656 7.296875 -19.109375 C 6.429688 -17.617188 6 -15.925781 6 -14.03125 C 6 -12.132812 6.429688 -10.4375 7.296875 -8.9375 C 8.160156 -7.445312 9.363281 -6.285156 10.90625 -5.453125 C 12.445312 -4.628906 14.179688 -4.21875 16.109375 -4.21875 Z M 16.109375 -4.21875 "/></g></g></g><g fill="#000000" fill-opacity="1"><g transform="translate(275.799189, 185.179589)"><g><path d="M 28.3125 -12.25 L 5.953125 -12.25 C 6.148438 -9.46875 7.210938 -7.222656 9.140625 -5.515625 C 11.078125 -3.804688 13.519531 -2.953125 16.46875 -2.953125 C 18.125 -2.953125 19.644531 -3.25 21.03125 -3.84375 C 22.425781 -4.4375 23.632812 -5.304688 24.65625 -6.453125 L 26.6875 -4.109375 C 25.5 -2.691406 24.015625 -1.609375 22.234375 -0.859375 C 20.453125 -0.117188 18.492188 0.25 16.359375 0.25 C 13.617188 0.25 11.1875 -0.332031 9.0625 -1.5 C 6.945312 -2.664062 5.296875 -4.28125 4.109375 -6.34375 C 2.929688 -8.414062 2.34375 -10.757812 2.34375 -13.375 C 2.34375 -15.976562 2.910156 -18.3125 4.046875 -20.375 C 5.179688 -22.445312 6.738281 -24.054688 8.71875 -25.203125 C 10.695312 -26.359375 12.925781 -26.9375 15.40625 -26.9375 C 17.875 -26.9375 20.085938 -26.359375 22.046875 -25.203125 C 24.015625 -24.054688 25.554688 -22.457031 26.671875 -20.40625 C 27.796875 -18.351562 28.359375 -16.007812 28.359375 -13.375 Z M 15.40625 -23.84375 C 12.820312 -23.84375 10.65625 -23.019531 8.90625 -21.375 C 7.164062 -19.726562 6.179688 -17.582031 5.953125 -14.9375 L 24.90625 -14.9375 C 24.664062 -17.582031 23.671875 -19.726562 21.921875 -21.375 C 20.179688 -23.019531 18.007812 -23.84375 15.40625 -23.84375 Z M 15.40625 -23.84375 "/></g></g></g><g fill="#000000" fill-opacity="1"><g transform="translate(306.351546, 169.843582)"><g><path d="M 2.296875 0.140625 C 1.773438 0.140625 1.332031 -0.03125 0.96875 -0.375 C 0.613281 -0.726562 0.4375 -1.171875 0.4375 -1.703125 C 0.4375 -2.242188 0.613281 -2.679688 0.96875 -3.015625 C 1.320312 -3.359375 1.765625 -3.53125 2.296875 -3.53125 C 2.847656 -3.53125 3.296875 -3.359375 3.640625 -3.015625 C 3.992188 -2.679688 4.171875 -2.242188 4.171875 -1.703125 C 4.171875 -1.171875 3.992188 -0.726562 3.640625 -0.375 C 3.285156 -0.03125 2.835938 0.140625 2.296875 0.140625 Z M 2.296875 0.140625 "/></g></g></g><g fill="#000000" fill-opacity="1"><g transform="translate(310.974275, 169.843582)"><g><path d="M 3.578125 -8.875 L 0.0625 -8.875 L 0.0625 -11.4375 L 10.3125 -11.4375 L 10.3125 -8.875 L 6.8125 -8.875 L 6.8125 0 L 3.578125 0 Z M 3.578125 -8.875 "/></g></g></g><g fill="#000000" fill-opacity="1"><g transform="translate(321.34682, 169.843582)"><g><path d="M 10.328125 -2.5 L 10.328125 0 L 1.140625 0 L 1.140625 -11.4375 L 10.109375 -11.4375 L 10.109375 -8.9375 L 4.34375 -8.9375 L 4.34375 -7.015625 L 9.4375 -7.015625 L 9.4375 -4.59375 L 4.34375 -4.59375 L 4.34375 -2.5 Z M 10.328125 -2.5 "/></g></g></g><g fill="#000000" fill-opacity="1"><g transform="translate(332.323764, 169.843582)"><g><path d="M 6.84375 0.234375 C 5.644531 0.234375 4.566406 -0.0195312 3.609375 -0.53125 C 2.660156 -1.039062 1.914062 -1.742188 1.375 -2.640625 C 0.832031 -3.546875 0.5625 -4.570312 0.5625 -5.71875 C 0.5625 -6.863281 0.832031 -7.890625 1.375 -8.796875 C 1.914062 -9.703125 2.660156 -10.40625 3.609375 -10.90625 C 4.566406 -11.414062 5.644531 -11.671875 6.84375 -11.671875 C 7.894531 -11.671875 8.835938 -11.484375 9.671875 -11.109375 C 10.515625 -10.742188 11.210938 -10.210938 11.765625 -9.515625 L 9.703125 -7.65625 C 8.960938 -8.539062 8.066406 -8.984375 7.015625 -8.984375 C 6.390625 -8.984375 5.832031 -8.847656 5.34375 -8.578125 C 4.863281 -8.304688 4.488281 -7.921875 4.21875 -7.421875 C 3.957031 -6.929688 3.828125 -6.363281 3.828125 -5.71875 C 3.828125 -5.070312 3.957031 -4.5 4.21875 -4 C 4.488281 -3.507812 4.863281 -3.128906 5.34375 -2.859375 C 5.832031 -2.585938 6.390625 -2.453125 7.015625 -2.453125 C 8.066406 -2.453125 8.960938 -2.898438 9.703125 -3.796875 L 11.765625 -1.921875 C 11.210938 -1.222656 10.515625 -0.6875 9.671875 -0.3125 C 8.835938 0.0507812 7.894531 0.234375 6.84375 0.234375 Z M 6.84375 0.234375 "/></g></g></g><g fill="#000000" fill-opacity="1"><g transform="translate(344.378786, 169.843582)"><g><path d="M 12.03125 -11.4375 L 12.03125 0 L 8.796875 0 L 8.796875 -4.46875 L 4.375 -4.46875 L 4.375 0 L 1.140625 0 L 1.140625 -11.4375 L 4.375 -11.4375 L 4.375 -7.140625 L 8.796875 -7.140625 L 8.796875 -11.4375 Z M 12.03125 -11.4375 "/></g></g></g></svg>