<?xml version="1.0" encoding="UTF-8" standalone="no"?>
<svg
   width="437.76584"
   zoomAndPan="magnify"
   viewBox="0 0 328.32438 47.828126"
   height="63.770836"
   preserveAspectRatio="xMidYMid meet"
   version="1.0"
   id="svg301"
   sodipodi:docname="makerforge_logo_horizontal_cropped.svg"
   inkscape:version="1.1.2 (0a00cf5339, 2022-02-04)"
   xmlns:inkscape="http://www.inkscape.org/namespaces/inkscape"
   xmlns:sodipodi="http://sodipodi.sourceforge.net/DTD/sodipodi-0.dtd"
   xmlns="http://www.w3.org/2000/svg"
   xmlns:svg="http://www.w3.org/2000/svg">
  <sodipodi:namedview
     id="namedview303"
     pagecolor="#ffffff"
     bordercolor="#666666"
     borderopacity="1.0"
     inkscape:pageshadow="2"
     inkscape:pageopacity="0.0"
     inkscape:pagecheckerboard="0"
     showgrid="false"
     fit-margin-top="0"
     fit-margin-left="0"
     fit-margin-right="0"
     fit-margin-bottom="0"
     inkscape:zoom="1.27"
     inkscape:cx="211.81102"
     inkscape:cy="53.149606"
     inkscape:window-width="1503"
     inkscape:window-height="886"
     inkscape:window-x="0"
     inkscape:window-y="27"
     inkscape:window-maximized="1"
     inkscape:current-layer="svg301" />
  <defs
     id="defs175">
    <g
       id="g173" />
  </defs>
  <g
     fill="#000000"
     fill-opacity="1"
     id="g187"
     transform="translate(-28.085659,-147.46084)">
    <g
       transform="translate(23.866909,185.17959)"
       id="g185">
      <g
         id="g183">
        <path
           d="M 36.59375,0 36.54688,-21.34375 26.07813,-3.765625 h -3.71875 l -10.42188,-17.125 V 0 H 4.21875 v -35.578125 h 6.8125 l 13.3125,22.109375 13.109375,-22.109375 H 44.21875 L 44.328125,0 Z m 0,0"
           id="path181" />
      </g>
    </g>
  </g>
  <g
     fill="#000000"
     fill-opacity="1"
     id="g195"
     transform="translate(-28.085659,-147.46084)">
    <g
       transform="translate(68.540638,185.17959)"
       id="g193">
      <g
         id="g191">
        <path
           d="m 14.6875,-27.75 c 4.238281,0 7.492188,1.011719 9.765625,3.03125 2.269531,2.011719 3.40625,5.046875 3.40625,9.109375 V 0 H 20.4375 v -3.40625 c -1.492188,2.542969 -4.273438,3.8125 -8.34375,3.8125 C 10,0.40625 8.179688,0.0507812 6.640625,-0.65625 5.097656,-1.375 3.914062,-2.359375 3.09375,-3.609375 2.28125,-4.859375 1.875,-6.28125 1.875,-7.875 c 0,-2.539062 0.957031,-4.539062 2.875,-6 1.914062,-1.457031 4.875,-2.1875 8.875,-2.1875 h 6.296875 c 0,-1.726562 -0.527344,-3.054688 -1.578125,-3.984375 -1.054688,-0.9375 -2.625,-1.40625 -4.71875,-1.40625 -1.460938,0 -2.890625,0.230469 -4.296875,0.6875 C 7.921875,-20.304688 6.726562,-19.6875 5.75,-18.90625 l -2.859375,-5.546875 c 1.5,-1.050781 3.289063,-1.863281 5.375,-2.4375 C 10.347656,-27.460938 12.488281,-27.75 14.6875,-27.75 Z m -0.609375,22.8125 c 1.351563,0 2.554687,-0.3125 3.609375,-0.9375 1.050781,-0.625 1.796875,-1.546875 2.234375,-2.765625 V -11.4375 h -5.4375 c -3.25,0 -4.875,1.070312 -4.875,3.203125 0,1.023437 0.394531,1.828125 1.1875,2.421875 0.800781,0.585938 1.894531,0.875 3.28125,0.875 z m 0,0"
           id="path189" />
      </g>
    </g>
  </g>
  <g
     fill="#000000"
     fill-opacity="1"
     id="g203"
     transform="translate(-28.085659,-147.46084)">
    <g
       transform="translate(96.035756,185.17959)"
       id="g201">
      <g
         id="g199">
        <path
           d="m 15.40625,-10.71875 -3.8125,3.75 V 0 h -7.9375 v -37.71875 h 7.9375 v 21.359375 L 23.171875,-27.34375 H 32.625 L 21.25,-15.75 33.640625,0 h -9.59375 z m 0,0"
           id="path197" />
      </g>
    </g>
  </g>
  <g
     fill="#000000"
     fill-opacity="1"
     id="g211"
     transform="translate(-28.085659,-147.46084)">
    <g
       transform="translate(125.71632,185.17959)"
       id="g209">
      <g
         id="g207">
        <path
           d="m 30.453125,-13.578125 c 0,0.105469 -0.05469,0.820313 -0.15625,2.140625 h -20.6875 c 0.375,1.699219 1.253906,3.039062 2.640625,4.015625 1.382812,0.980469 3.113281,1.46875 5.1875,1.46875 1.414062,0 2.675781,-0.207031 3.78125,-0.625 1.101562,-0.425781 2.128906,-1.097656 3.078125,-2.015625 l 4.21875,4.578125 c -2.574219,2.949219 -6.335937,4.421875 -11.28125,4.421875 -3.085937,0 -5.8125,-0.597656 -8.1875,-1.796875 -2.375,-1.207031 -4.210937,-2.878906 -5.5,-5.015625 C 2.265625,-8.539062 1.625,-10.960938 1.625,-13.671875 c 0,-2.675781 0.632812,-5.085937 1.90625,-7.234375 1.269531,-2.15625 3.015625,-3.832031 5.234375,-5.03125 2.21875,-1.207031 4.703125,-1.8125 7.453125,-1.8125 2.675781,0 5.097656,0.578125 7.265625,1.734375 2.164063,1.148437 3.867187,2.796875 5.109375,4.953125 1.238281,2.148438 1.859375,4.640625 1.859375,7.484375 z M 16.265625,-21.75 c -1.792969,0 -3.304687,0.511719 -4.53125,1.53125 -1.21875,1.011719 -1.964844,2.398438 -2.234375,4.15625 h 13.46875 c -0.273438,-1.726562 -1.015625,-3.109375 -2.234375,-4.140625 -1.21875,-1.03125 -2.710937,-1.546875 -4.46875,-1.546875 z m 0,0"
           id="path205" />
      </g>
    </g>
  </g>
  <g
     fill="#000000"
     fill-opacity="1"
     id="g219"
     transform="translate(-28.085659,-147.46084)">
    <g
       transform="translate(153.92297,185.17959)"
       id="g217">
      <g
         id="g215">
        <path
           d="m 11.234375,-23.734375 c 0.945313,-1.320313 2.222656,-2.320313 3.828125,-3 1.613281,-0.675781 3.472656,-1.015625 5.578125,-1.015625 v 7.3125 c -0.886719,-0.0625 -1.480469,-0.09375 -1.78125,-0.09375 -2.273437,0 -4.054687,0.636719 -5.34375,1.90625 -1.28125,1.273438 -1.921875,3.179688 -1.921875,5.71875 V 0 h -7.9375 v -27.34375 h 7.578125 z m 0,0"
           id="path213" />
      </g>
    </g>
  </g>
  <g
     fill="#000000"
     fill-opacity="1"
     id="g227"
     transform="translate(-28.085659,-147.46084)">
    <g
       transform="translate(171.96846,185.17959)"
       id="g225">
      <g
         id="g223">
        <path
           d="m 9.5625,-32.328125 v 13.984375 h 18.390625 v 3.25 H 9.5625 V 0 H 5.796875 V -35.578125 H 30.1875 v 3.25 z m 0,0"
           id="path221" />
      </g>
    </g>
  </g>
  <g
     fill="#000000"
     fill-opacity="1"
     id="g235"
     transform="translate(-28.085659,-147.46084)">
    <g
       transform="translate(200.27676,185.17959)"
       id="g233">
      <g
         id="g231">
        <path
           d="m 15.953125,0.25 c -2.574219,0 -4.898437,-0.582031 -6.96875,-1.75 -2.0625,-1.164062 -3.6875,-2.78125 -4.875,-4.84375 C 2.929688,-8.414062 2.34375,-10.757812 2.34375,-13.375 c 0,-2.601562 0.585938,-4.9375 1.765625,-7 1.1875,-2.070312 2.8125,-3.679688 4.875,-4.828125 2.070313,-1.15625 4.394531,-1.734375 6.96875,-1.734375 2.582031,0 4.90625,0.578125 6.96875,1.734375 2.070313,1.148437 3.691406,2.757813 4.859375,4.828125 1.164062,2.0625 1.75,4.398438 1.75,7 0,2.617188 -0.585938,4.960938 -1.75,7.03125 -1.167969,2.0625 -2.789062,3.679688 -4.859375,4.84375 -2.0625,1.167969 -4.386719,1.75 -6.96875,1.75 z m 0,-3.203125 c 1.90625,0 3.609375,-0.429687 5.109375,-1.296875 1.507812,-0.863281 2.6875,-2.085938 3.53125,-3.671875 0.851562,-1.59375 1.28125,-3.410156 1.28125,-5.453125 0,-2.03125 -0.429688,-3.84375 -1.28125,-5.4375 -0.84375,-1.59375 -2.023438,-2.816406 -3.53125,-3.671875 -1.5,-0.863281 -3.203125,-1.296875 -5.109375,-1.296875 -1.898437,0 -3.601563,0.433594 -5.109375,1.296875 -1.5,0.855469 -2.683594,2.078125 -3.546875,3.671875 C 6.429688,-17.21875 6,-15.40625 6,-13.375 c 0,2.042969 0.429688,3.859375 1.296875,5.453125 0.863281,1.585937 2.046875,2.808594 3.546875,3.671875 1.507812,0.867188 3.210938,1.296875 5.109375,1.296875 z m 0,0"
           id="path229" />
      </g>
    </g>
  </g>
  <g
     fill="#000000"
     fill-opacity="1"
     id="g243"
     transform="translate(-28.085659,-147.46084)">
    <g
       transform="translate(228.28012,185.17959)"
       id="g241">
      <g
         id="g239">
        <path
           d="m 8.484375,-21.5 c 0.851563,-1.789062 2.117187,-3.144531 3.796875,-4.0625 1.675781,-0.914062 3.75,-1.375 6.21875,-1.375 v 3.5 l -0.859375,-0.04687 c -2.8125,0 -5.015625,0.867187 -6.609375,2.59375 -1.59375,1.730469 -2.390625,4.152344 -2.390625,7.265625 V 0 H 5.03125 v -26.734375 h 3.453125 z m 0,0"
           id="path237" />
      </g>
    </g>
  </g>
  <g
     fill="#000000"
     fill-opacity="1"
     id="g251"
     transform="translate(-28.085659,-147.46084)">
    <g
       transform="translate(244.7972,185.17959)"
       id="g249">
      <g
         id="g247">
        <path
           d="M 29.78125,-26.734375 V -3.25 c 0,4.539062 -1.109375,7.898438 -3.328125,10.078125 -2.21875,2.1875 -5.5625,3.28125 -10.03125,3.28125 -2.480469,0 -4.828125,-0.367187 -7.046875,-1.09375 C 7.15625,8.285156 5.351562,7.28125 3.96875,6 L 5.796875,3.25 c 1.28125,1.15625 2.84375,2.050781 4.6875,2.6875 1.851563,0.644531 3.796875,0.96875 5.828125,0.96875 3.394531,0 5.882812,-0.789062 7.46875,-2.359375 1.59375,-1.574219 2.390625,-4.023437 2.390625,-7.34375 v -3.40625 c -1.117187,1.699219 -2.578125,2.992187 -4.390625,3.875 -1.8125,0.875 -3.824219,1.3125 -6.03125,1.3125 -2.5,0 -4.777344,-0.550781 -6.828125,-1.65625 -2.054687,-1.101563 -3.664063,-2.644531 -4.828125,-4.625 -1.167969,-1.976563 -1.75,-4.222656 -1.75,-6.734375 0,-2.507812 0.582031,-4.742188 1.75,-6.703125 1.164062,-1.96875 2.765625,-3.492187 4.796875,-4.578125 2.03125,-1.082031 4.316406,-1.625 6.859375,-1.625 2.269531,0 4.320312,0.460938 6.15625,1.375 1.832031,0.917969 3.304688,2.234375 4.421875,3.953125 v -5.125 z M 16.109375,-4.21875 c 1.9375,0 3.679687,-0.410156 5.234375,-1.234375 1.5625,-0.832031 2.773438,-1.992187 3.640625,-3.484375 0.863281,-1.5 1.296875,-3.195312 1.296875,-5.09375 0,-1.894531 -0.433594,-3.578125 -1.296875,-5.046875 -0.867187,-1.476563 -2.070313,-2.628906 -3.609375,-3.453125 -1.542969,-0.832031 -3.296875,-1.25 -5.265625,-1.25 -1.929687,0 -3.664063,0.40625 -5.203125,1.21875 -1.542969,0.8125 -2.746094,1.964844 -3.609375,3.453125 C 6.429688,-17.617188 6,-15.925781 6,-14.03125 c 0,1.898438 0.429688,3.59375 1.296875,5.09375 0.863281,1.492188 2.066406,2.652344 3.609375,3.484375 1.539062,0.824219 3.273438,1.234375 5.203125,1.234375 z m 0,0"
           id="path245" />
      </g>
    </g>
  </g>
  <g
     fill="#000000"
     fill-opacity="1"
     id="g259"
     transform="translate(-28.085659,-147.46084)">
    <g
       transform="translate(275.79919,185.17959)"
       id="g257">
      <g
         id="g255">
        <path
           d="M 28.3125,-12.25 H 5.953125 c 0.195313,2.78125 1.257813,5.027344 3.1875,6.734375 1.9375,1.710937 4.378906,2.5625 7.328125,2.5625 1.65625,0 3.175781,-0.296875 4.5625,-0.890625 1.394531,-0.59375 2.601562,-1.460938 3.625,-2.609375 l 2.03125,2.34375 c -1.1875,1.417969 -2.671875,2.5 -4.453125,3.25 C 20.453125,-0.117188 18.492188,0.25 16.359375,0.25 13.617188,0.25 11.1875,-0.332031 9.0625,-1.5 6.945312,-2.664062 5.296875,-4.28125 4.109375,-6.34375 2.929688,-8.414062 2.34375,-10.757812 2.34375,-13.375 c 0,-2.601562 0.566406,-4.9375 1.703125,-7 1.132813,-2.070312 2.691406,-3.679688 4.671875,-4.828125 1.976562,-1.15625 4.207031,-1.734375 6.6875,-1.734375 2.46875,0 4.679688,0.578125 6.640625,1.734375 1.96875,1.148437 3.507813,2.746094 4.625,4.796875 1.125,2.054688 1.6875,4.398438 1.6875,7.03125 z M 15.40625,-23.84375 c -2.585938,0 -4.75,0.824219 -6.5,2.46875 -1.742188,1.648438 -2.726562,3.792969 -2.953125,6.4375 H 24.90625 c -0.242188,-2.644531 -1.234375,-4.789062 -2.984375,-6.4375 -1.742187,-1.644531 -3.914063,-2.46875 -6.515625,-2.46875 z m 0,0"
           id="path253" />
      </g>
    </g>
  </g>
  <g
     fill="#000000"
     fill-opacity="1"
     id="g267"
     transform="translate(-28.085659,-147.46084)">
    <g
       transform="translate(306.35155,169.84358)"
       id="g265">
      <g
         id="g263">
        <path
           d="M 2.296875,0.140625 C 1.773438,0.140625 1.332031,-0.03125 0.96875,-0.375 0.613281,-0.726562 0.4375,-1.171875 0.4375,-1.703125 c 0,-0.539063 0.175781,-0.976563 0.53125,-1.3125 0.351562,-0.34375 0.796875,-0.515625 1.328125,-0.515625 0.550781,0 1,0.171875 1.34375,0.515625 0.351563,0.335937 0.53125,0.773437 0.53125,1.3125 0,0.53125 -0.179687,0.976563 -0.53125,1.328125 -0.355469,0.34375 -0.804687,0.515625 -1.34375,0.515625 z m 0,0"
           id="path261" />
      </g>
    </g>
  </g>
  <g
     fill="#000000"
     fill-opacity="1"
     id="g275"
     transform="translate(-28.085659,-147.46084)">
    <g
       transform="translate(310.97427,169.84358)"
       id="g273">
      <g
         id="g271">
        <path
           d="M 3.578125,-8.875 H 0.0625 v -2.5625 h 10.25 v 2.5625 h -3.5 V 0 H 3.578125 Z m 0,0"
           id="path269" />
      </g>
    </g>
  </g>
  <g
     fill="#000000"
     fill-opacity="1"
     id="g283"
     transform="translate(-28.085659,-147.46084)">
    <g
       transform="translate(321.34682,169.84358)"
       id="g281">
      <g
         id="g279">
        <path
           d="M 10.328125,-2.5 V 0 h -9.1875 v -11.4375 h 8.96875 v 2.5 H 4.34375 v 1.921875 H 9.4375 V -4.59375 H 4.34375 V -2.5 Z m 0,0"
           id="path277" />
      </g>
    </g>
  </g>
  <g
     fill="#000000"
     fill-opacity="1"
     id="g291"
     transform="translate(-28.085659,-147.46084)">
    <g
       transform="translate(332.32376,169.84358)"
       id="g289">
      <g
         id="g287">
        <path
           d="m 6.84375,0.234375 c -1.199219,0 -2.277344,-0.2539062 -3.234375,-0.765625 C 2.660156,-1.039062 1.914062,-1.742188 1.375,-2.640625 0.832031,-3.546875 0.5625,-4.570312 0.5625,-5.71875 c 0,-1.144531 0.269531,-2.171875 0.8125,-3.078125 0.539062,-0.90625 1.285156,-1.609375 2.234375,-2.109375 0.957031,-0.507812 2.035156,-0.765625 3.234375,-0.765625 1.050781,0 1.992188,0.1875 2.828125,0.5625 0.84375,0.367187 1.539063,0.898437 2.09375,1.59375 l -2.0625,1.859375 c -0.742187,-0.882812 -1.636719,-1.328125 -2.6875,-1.328125 -0.625,0 -1.183594,0.136719 -1.671875,0.40625 -0.480469,0.273437 -0.855469,0.65625 -1.125,1.15625 -0.261719,0.492187 -0.390625,1.058594 -0.390625,1.703125 0,0.648438 0.128906,1.21875 0.390625,1.71875 0.269531,0.492188 0.644531,0.871094 1.125,1.140625 0.488281,0.273437 1.046875,0.40625 1.671875,0.40625 1.050781,0 1.945313,-0.445313 2.6875,-1.34375 l 2.0625,1.875 c -0.554687,0.699219 -1.25,1.234375 -2.09375,1.609375 C 8.835938,0.0507812 7.894531,0.234375 6.84375,0.234375 Z m 0,0"
           id="path285" />
      </g>
    </g>
  </g>
  <g
     fill="#000000"
     fill-opacity="1"
     id="g299"
     transform="translate(-28.085659,-147.46084)">
    <g
       transform="translate(344.37879,169.84358)"
       id="g297">
      <g
         id="g295">
        <path
           d="M 12.03125,-11.4375 V 0 H 8.796875 V -4.46875 H 4.375 V 0 H 1.140625 V -11.4375 H 4.375 v 4.296875 H 8.796875 V -11.4375 Z m 0,0"
           id="path293" />
      </g>
    </g>
  </g>
</svg>
