<?xml version="1.0" encoding="UTF-8" standalone="no"?>
<svg
   width="420"
   zoomAndPan="magnify"
   viewBox="0 0 315 314.99999"
   height="420"
   preserveAspectRatio="xMidYMid meet"
   version="1.0"
   id="svg130"
   sodipodi:docname="makerforge_logo_square_white_bg.svg"
   inkscape:version="1.1.2 (0a00cf5339, 2022-02-04)"
   xmlns:inkscape="http://www.inkscape.org/namespaces/inkscape"
   xmlns:sodipodi="http://sodipodi.sourceforge.net/DTD/sodipodi-0.dtd"
   xmlns="http://www.w3.org/2000/svg"
   xmlns:svg="http://www.w3.org/2000/svg">
  <sodipodi:namedview
     id="namedview132"
     pagecolor="#ffffff"
     bordercolor="#666666"
     borderopacity="1.0"
     inkscape:pageshadow="2"
     inkscape:pageopacity="0.0"
     inkscape:pagecheckerboard="0"
     showgrid="false"
     fit-margin-left="10"
     lock-margins="true"
     fit-margin-top="10"
     fit-margin-right="10"
     fit-margin-bottom="10"
     inkscape:zoom="0.64"
     inkscape:cx="709.375"
     inkscape:cy="246.09375"
     inkscape:window-width="1503"
     inkscape:window-height="886"
     inkscape:window-x="0"
     inkscape:window-y="27"
     inkscape:window-maximized="1"
     inkscape:current-layer="layer1"
     width="420px" />
  <defs
     id="defs4">
    <g
       id="g2" />
  </defs>
  <g
     inkscape:groupmode="layer"
     id="layer1"
     inkscape:label="Layer 1">
    <rect
       style="fill:#ffffff;stroke-width:0.807702"
       id="rect307"
       width="339.65518"
       height="336.8317"
       x="-11.825471"
       y="-12.373317" />
  </g>
  <g
     inkscape:groupmode="layer"
     id="layer2"
     inkscape:label="Layer 2">
    <g
       fill="#000000"
       fill-opacity="1"
       id="g16"
       transform="translate(-21.715242,-36.404138)">
      <g
         transform="translate(25.469831,177.5997)"
         id="g14">
        <g
           id="g12">
          <path
             d="m 60.625,0 -0.07813,-35.359375 -17.34375,29.125 h -6.15625 l -17.265625,-28.375 V 0 H 6.984375 v -58.9375 h 11.28125 l 22.0625,36.625 21.734375,-36.625 H 73.25 L 73.421875,0 Z m 0,0"
             id="path10" />
        </g>
      </g>
    </g>
    <g
       fill="#000000"
       fill-opacity="1"
       id="g24"
       transform="translate(-21.715242,-36.404138)">
      <g
         transform="translate(101.58542,177.5997)"
         id="g22">
        <g
           id="g20">
          <path
             d="m 24.328125,-45.96875 c 7.019531,0 12.410156,1.671875 16.171875,5.015625 3.757812,3.335937 5.640625,8.371094 5.640625,15.109375 V 0 H 33.84375 v -5.640625 c -2.46875,4.210937 -7.070312,6.3125 -13.796875,6.3125 -3.492187,0 -6.511719,-0.5898438 -9.0625,-1.765625 C 8.429688,-2.269531 6.476562,-3.894531 5.125,-5.96875 3.78125,-8.050781 3.109375,-10.410156 3.109375,-13.046875 c 0,-4.207031 1.582031,-7.519531 4.75,-9.9375 3.175781,-2.414063 8.078125,-3.625 14.703125,-3.625 H 33 c 0,-2.863281 -0.871094,-5.066406 -2.609375,-6.609375 -1.742187,-1.539062 -4.351563,-2.3125 -7.828125,-2.3125 -2.40625,0 -4.777344,0.382812 -7.109375,1.140625 -2.335937,0.75 -4.3125,1.773437 -5.9375,3.0625 L 4.796875,-40.5 c 2.46875,-1.738281 5.425781,-3.082031 8.875,-4.03125 3.457031,-0.957031 7.007813,-1.4375 10.65625,-1.4375 z m -1,37.796875 c 2.238281,0 4.226563,-0.515625 5.96875,-1.546875 1.738281,-1.039062 2.972656,-2.570312 3.703125,-4.59375 v -4.640625 h -9 c -5.386719,0 -8.078125,1.773437 -8.078125,5.3125 0,1.6875 0.65625,3.023437 1.96875,4 1.320313,0.980469 3.132813,1.46875 5.4375,1.46875 z m 0,0"
             id="path18" />
        </g>
      </g>
    </g>
    <g
       fill="#000000"
       fill-opacity="1"
       id="g32"
       transform="translate(-21.715242,-36.404138)">
      <g
         transform="translate(149.24168,177.5997)"
         id="g30">
        <g
           id="g28">
          <path
             d="m 25.515625,-17.765625 -6.3125,6.234375 V 0 H 6.0625 v -62.484375 h 13.140625 v 35.375 l 19.1875,-18.1875 H 54.0625 L 35.203125,-26.109375 55.75,0 H 39.828125 Z m 0,0"
             id="path26" />
        </g>
      </g>
    </g>
    <g
       fill="#000000"
       fill-opacity="1"
       id="g40"
       transform="translate(-21.715242,-36.404138)">
      <g
         transform="translate(200.51851,177.5997)"
         id="g38">
        <g
           id="g36">
          <path
             d="m 50.4375,-22.484375 c 0,0.167969 -0.08594,1.34375 -0.25,3.53125 H 15.921875 c 0.613281,2.8125 2.070313,5.03125 4.375,6.65625 2.300781,1.625 5.160156,2.4375 8.578125,2.4375 2.363281,0 4.457031,-0.347656 6.28125,-1.046875 1.820312,-0.695312 3.519531,-1.804688 5.09375,-3.328125 l 6.984375,7.578125 c -4.261719,4.886719 -10.492187,7.328125 -18.6875,7.328125 -5.117187,0 -9.636719,-0.992187 -13.5625,-2.984375 -3.929687,-2 -6.960937,-4.765625 -9.09375,-8.296875 C 3.753906,-14.148438 2.6875,-18.164062 2.6875,-22.65625 c 0,-4.425781 1.050781,-8.421875 3.15625,-11.984375 2.113281,-3.570313 5.007812,-6.351563 8.6875,-8.34375 3.675781,-1.988281 7.785156,-2.984375 12.328125,-2.984375 4.4375,0 8.453125,0.953125 12.046875,2.859375 3.59375,1.90625 6.410156,4.640625 8.453125,8.203125 2.050781,3.5625 3.078125,7.703125 3.078125,12.421875 z m -23.5,-13.546875 c -2.96875,0 -5.464844,0.84375 -7.484375,2.53125 -2.023437,1.679688 -3.257813,3.976562 -3.703125,6.890625 h 22.3125 c -0.449219,-2.863281 -1.683594,-5.148437 -3.703125,-6.859375 -2.023437,-1.707031 -4.496094,-2.5625 -7.421875,-2.5625 z m 0,0"
             id="path34" />
        </g>
      </g>
    </g>
    <g
       fill="#000000"
       fill-opacity="1"
       id="g48"
       transform="translate(-21.715242,-36.404138)">
      <g
         transform="translate(249.35356,177.5997)"
         id="g46">
        <g
           id="g44">
          <path
             d="m 18.609375,-39.328125 c 1.570313,-2.1875 3.691406,-3.835937 6.359375,-4.953125 2.664062,-1.125 5.738281,-1.6875 9.21875,-1.6875 v 12.125 c -1.460938,-0.113281 -2.445312,-0.171875 -2.953125,-0.171875 -3.761719,0 -6.710937,1.054687 -8.84375,3.15625 -2.125,2.105469 -3.1875,5.261719 -3.1875,9.46875 V 0 H 6.0625 v -45.296875 h 12.546875 z m 0,0"
             id="path42" />
        </g>
      </g>
    </g>
    <g
       fill="#000000"
       fill-opacity="1"
       id="g56"
       transform="translate(-21.715242,-36.404138)">
      <g
         transform="translate(248.06586,236.70223)"
         id="g54">
        <g
           id="g52">
          <path
             d="M 3.8125,0.25 C 2.945312,0.25 2.21875,-0.0351562 1.625,-0.609375 1.03125,-1.191406 0.734375,-1.925781 0.734375,-2.8125 c 0,-0.90625 0.289063,-1.632812 0.875,-2.1875 0.582031,-0.5625 1.316406,-0.84375 2.203125,-0.84375 0.90625,0 1.644531,0.28125 2.21875,0.84375 0.582031,0.554688 0.875,1.28125 0.875,2.1875 0,0.886719 -0.296875,1.621094 -0.890625,2.203125 C 5.429688,-0.0351562 4.695312,0.25 3.8125,0.25 Z m 0,0"
             id="path50" />
        </g>
      </g>
    </g>
    <g
       fill="#000000"
       fill-opacity="1"
       id="g64"
       transform="translate(-21.715242,-36.404138)">
      <g
         transform="translate(255.7234,236.70223)"
         id="g62">
        <g
           id="g60">
          <path
             d="m 5.921875,-14.6875 h -5.8125 v -4.25 h 16.96875 v 4.25 H 11.28125 V 0 H 5.921875 Z m 0,0"
             id="path58" />
        </g>
      </g>
    </g>
    <g
       fill="#000000"
       fill-opacity="1"
       id="g72"
       transform="translate(-21.715242,-36.404138)">
      <g
         transform="translate(272.9055,236.70223)"
         id="g70">
        <g
           id="g68">
          <path
             d="M 17.109375,-4.140625 V 0 H 1.890625 V -18.9375 H 16.75 v 4.140625 H 7.203125 v 3.1875 h 8.40625 v 4 h -8.40625 v 3.46875 z m 0,0"
             id="path66" />
        </g>
      </g>
    </g>
    <g
       fill="#000000"
       fill-opacity="1"
       id="g80"
       transform="translate(-21.715242,-36.404138)">
      <g
         transform="translate(291.08879,236.70223)"
         id="g78">
        <g
           id="g76">
          <path
             d="m 11.34375,0.375 c -1.992188,0 -3.777344,-0.4140625 -5.359375,-1.25 -1.574219,-0.84375 -2.8125,-2.007812 -3.71875,-3.5 -0.898437,-1.5 -1.34375,-3.195312 -1.34375,-5.09375 0,-1.894531 0.445313,-3.59375 1.34375,-5.09375 0.90625,-1.5 2.144531,-2.664062 3.71875,-3.5 1.582031,-0.84375 3.367187,-1.265625 5.359375,-1.265625 1.726562,0 3.285156,0.308594 4.671875,0.921875 1.394531,0.617188 2.550781,1.5 3.46875,2.65625 l -3.40625,3.078125 c -1.230469,-1.476563 -2.71875,-2.21875 -4.46875,-2.21875 -1.03125,0 -1.949219,0.230469 -2.75,0.6875 -0.804687,0.449219 -1.429687,1.085937 -1.875,1.90625 -0.4375,0.824219 -0.65625,1.765625 -0.65625,2.828125 0,1.0625 0.21875,2.007812 0.65625,2.828125 0.445313,0.824219 1.070313,1.460937 1.875,1.90625 0.800781,0.449219 1.71875,0.671875 2.75,0.671875 1.75,0 3.238281,-0.738281 4.46875,-2.21875 l 3.40625,3.09375 c -0.917969,1.148438 -2.074219,2.027344 -3.46875,2.640625 C 14.628906,0.0664062 13.070312,0.375 11.34375,0.375 Z m 0,0"
             id="path74" />
        </g>
      </g>
    </g>
    <g
       fill="#000000"
       fill-opacity="1"
       id="g88"
       transform="translate(-21.715242,-36.404138)">
      <g
         transform="translate(311.05791,236.70223)"
         id="g86">
        <g
           id="g84">
          <path
             d="M 19.921875,-18.9375 V 0 H 14.5625 V -7.390625 H 7.25 V 0 H 1.890625 V -18.9375 H 7.25 v 7.109375 h 7.3125 V -18.9375 Z m 0,0"
             id="path82" />
        </g>
      </g>
    </g>
    <g
       fill="#000000"
       fill-opacity="1"
       id="g96"
       transform="translate(-21.715242,-36.404138)">
      <g
         transform="translate(22.9775,256.25647)"
         id="g94">
        <g
           id="g92">
          <path
             d="m 15.828125,-53.546875 v 23.15625 H 46.3125 v 5.375 H 15.828125 V 0 H 9.59375 v -58.9375 h 40.421875 v 5.390625 z m 0,0"
             id="path90" />
        </g>
      </g>
    </g>
    <g
       fill="#000000"
       fill-opacity="1"
       id="g104"
       transform="translate(-21.715242,-36.404138)">
      <g
         transform="translate(69.87574,256.25647)"
         id="g102">
        <g
           id="g100">
          <path
             d="m 26.4375,0.421875 c -4.261719,0 -8.105469,-0.96875 -11.53125,-2.90625 -3.429688,-1.9375 -6.125,-4.613281 -8.09375,-8.03125 -1.960938,-3.425781 -2.9375,-7.300781 -2.9375,-11.625 0,-4.320313 0.976562,-8.195313 2.9375,-11.625 1.96875,-3.425781 4.664062,-6.09375 8.09375,-8 3.425781,-1.90625 7.269531,-2.859375 11.53125,-2.859375 4.269531,0 8.113281,0.953125 11.53125,2.859375 3.425781,1.90625 6.109375,4.574219 8.046875,8 1.9375,3.429687 2.90625,7.304687 2.90625,11.625 0,4.324219 -0.96875,8.199219 -2.90625,11.625 -1.9375,3.417969 -4.621094,6.09375 -8.046875,8.03125 -3.417969,1.9375 -7.261719,2.90625 -11.53125,2.90625 z m 0,-5.3125 c 3.144531,0 5.96875,-0.710937 8.46875,-2.140625 2.5,-1.425781 4.445312,-3.457031 5.84375,-6.09375 1.40625,-2.644531 2.109375,-5.648438 2.109375,-9.015625 0,-3.375 -0.703125,-6.378906 -2.109375,-9.015625 -1.398438,-2.632812 -3.34375,-4.664062 -5.84375,-6.09375 -2.5,-1.4375 -5.324219,-2.15625 -8.46875,-2.15625 -3.148438,0 -5.96875,0.71875 -8.46875,2.15625 -2.492188,1.429688 -4.453125,3.460938 -5.890625,6.09375 -1.429687,2.636719 -2.140625,5.640625 -2.140625,9.015625 0,3.367187 0.710938,6.371094 2.140625,9.015625 1.4375,2.636719 3.398437,4.667969 5.890625,6.09375 2.5,1.429688 5.320312,2.140625 8.46875,2.140625 z m 0,0"
             id="path98" />
        </g>
      </g>
    </g>
    <g
       fill="#000000"
       fill-opacity="1"
       id="g112"
       transform="translate(-21.715242,-36.404138)">
      <g
         transform="translate(116.26878,256.25647)"
         id="g110">
        <g
           id="g108">
          <path
             d="m 14.0625,-35.625 c 1.40625,-2.96875 3.492188,-5.207031 6.265625,-6.71875 2.78125,-1.519531 6.222656,-2.28125 10.328125,-2.28125 v 5.8125 l -1.4375,-0.09375 c -4.65625,0 -8.308594,1.433594 -10.953125,4.296875 -2.636719,2.867187 -3.953125,6.882813 -3.953125,12.046875 V 0 H 8.34375 v -44.296875 h 5.71875 z m 0,0"
             id="path106" />
        </g>
      </g>
    </g>
    <g
       fill="#000000"
       fill-opacity="1"
       id="g120"
       transform="translate(-21.715242,-36.404138)">
      <g
         transform="translate(143.6328,256.25647)"
         id="g118">
        <g
           id="g116">
          <path
             d="m 49.34375,-44.296875 v 38.90625 c 0,7.519531 -1.839844,13.085937 -5.515625,16.703125 -3.679687,3.625 -9.21875,5.4375 -16.625,5.4375 -4.105469,0 -7.996094,-0.605469 -11.671875,-1.8125 -3.679688,-1.199219 -6.667969,-2.867188 -8.96875,-5 L 9.59375,5.390625 c 2.132812,1.90625 4.734375,3.390625 7.796875,4.453125 3.0625,1.070312 6.273437,1.609375 9.640625,1.609375 5.613281,0 9.738281,-1.308594 12.375,-3.921875 C 42.039062,4.925781 43.359375,0.875 43.359375,-4.625 v -5.640625 c -1.84375,2.804687 -4.273437,4.933594 -7.28125,6.390625 -3,1.460938 -6.324219,2.1875 -9.96875,2.1875 -4.15625,0 -7.933594,-0.910156 -11.328125,-2.734375 -3.398438,-1.820313 -6.0625,-4.375 -8,-7.65625 -1.9375,-3.289063 -2.90625,-7.007813 -2.90625,-11.15625 0,-4.15625 0.96875,-7.859375 2.90625,-11.109375 1.9375,-3.257812 4.585938,-5.785156 7.953125,-7.578125 3.363281,-1.800781 7.15625,-2.703125 11.375,-2.703125 3.757813,0 7.15625,0.761719 10.1875,2.28125 3.03125,1.511719 5.472656,3.699219 7.328125,6.5625 v -8.515625 z m -22.65625,37.3125 c 3.195312,0 6.085938,-0.6875 8.671875,-2.0625 2.582031,-1.375 4.585937,-3.296875 6.015625,-5.765625 1.4375,-2.476562 2.15625,-5.285156 2.15625,-8.421875 0,-3.144531 -0.71875,-5.9375 -2.15625,-8.375 -1.429688,-2.445313 -3.417969,-4.359375 -5.96875,-5.734375 -2.554688,-1.375 -5.460938,-2.0625 -8.71875,-2.0625 -3.199219,0 -6.074219,0.679688 -8.625,2.03125 -2.554688,1.34375 -4.546875,3.25 -5.984375,5.71875 -1.429687,2.46875 -2.140625,5.277344 -2.140625,8.421875 0,3.136719 0.710938,5.945313 2.140625,8.421875 1.4375,2.46875 3.429687,4.390625 5.984375,5.765625 2.550781,1.375 5.425781,2.0625 8.625,2.0625 z m 0,0"
             id="path114" />
        </g>
      </g>
    </g>
    <g
       fill="#000000"
       fill-opacity="1"
       id="g128"
       transform="translate(-21.715242,-36.404138)">
      <g
         transform="translate(194.9936,256.25647)"
         id="g126">
        <g
           id="g124">
          <path
             d="M 46.90625,-20.296875 H 9.859375 c 0.332031,4.605469 2.097656,8.324219 5.296875,11.15625 3.195312,2.835937 7.238281,4.25 12.125,4.25 2.75,0 5.273438,-0.488281 7.578125,-1.46875 2.300781,-0.976563 4.296875,-2.421875 5.984375,-4.328125 l 3.359375,3.859375 c -1.960937,2.367187 -4.414063,4.167969 -7.359375,5.40625 -2.949219,1.230469 -6.195312,1.84375 -9.734375,1.84375 -4.542969,0 -8.570313,-0.96875 -12.078125,-2.90625 -3.511719,-1.9375 -6.25,-4.613281 -8.21875,-8.03125 -1.960938,-3.425781 -2.9375,-7.300781 -2.9375,-11.625 0,-4.320313 0.9375,-8.195313 2.8125,-11.625 1.882812,-3.425781 4.46875,-6.09375 7.75,-8 3.28125,-1.90625 6.972656,-2.859375 11.078125,-2.859375 4.09375,0 7.765625,0.953125 11.015625,2.859375 3.257812,1.90625 5.816406,4.558594 7.671875,7.953125 1.851563,3.398438 2.78125,7.289062 2.78125,11.671875 z m -21.390625,-19.1875 c -4.273437,0 -7.855469,1.359375 -10.75,4.078125 -2.886719,2.71875 -4.523437,6.273438 -4.90625,10.65625 h 31.40625 c -0.398437,-4.382812 -2.042969,-7.9375 -4.9375,-10.65625 -2.886719,-2.71875 -6.492187,-4.078125 -10.8125,-4.078125 z m 0,0"
             id="path122" />
        </g>
      </g>
    </g>
  </g>
</svg>
